<?xml version="1.0" encoding="utf-8"?>
<!-- Generator: Adobe Illustrator 25.2.3, SVG Export Plug-In . SVG Version: 6.00 Build 0)  -->
<svg version="1.1" id="Ebene_1" xmlns="http://www.w3.org/2000/svg" xmlns:xlink="http://www.w3.org/1999/xlink" x="0px" y="0px"
	 width="70px" height="67.2px" viewBox="0 0 70 67.2" style="enable-background:new 0 0 70 67.2;" xml:space="preserve">
<style type="text/css">
	.Schlagschatten{fill:none;}
	.Breiter_x0020_blauer_x0020_Neonrahmen{fill:none;stroke:#0073BC;stroke-width:10;stroke-linecap:round;stroke-linejoin:round;}
	.Aquamarinfarbenes_x0020_Leuchten{fill:url(#SVGID_1_);stroke:#FFFFFF;stroke-width:0.25;stroke-miterlimit:1;}
	.Lichter_x0020_Schwarz{fill:url(#SVGID_2_);stroke:#FFFFFF;stroke-width:0.3629;stroke-miterlimit:1;}
	.Kinderwagen_GS{fill-rule:evenodd;clip-rule:evenodd;fill:#FFDD00;}
	.st0{fill:#2D3232;}
</style>
<linearGradient id="SVGID_1_" gradientUnits="userSpaceOnUse" x1="-527.0979" y1="-1184.5846" x2="-527.0979" y2="-1185.5846">
	<stop  offset="0" style="stop-color:#1D59F4"/>
	<stop  offset="0.618" style="stop-color:#2D65EE"/>
	<stop  offset="0.6292" style="stop-color:#3864F3"/>
	<stop  offset="0.9831" style="stop-color:#00DDFC"/>
</linearGradient>
<linearGradient id="SVGID_2_" gradientUnits="userSpaceOnUse" x1="-527.0979" y1="-1184.5846" x2="-527.0979" y2="-1185.5846">
	<stop  offset="0" style="stop-color:#060606"/>
	<stop  offset="0.618" style="stop-color:#000000"/>
	<stop  offset="0.6292" style="stop-color:#000000"/>
	<stop  offset="0.9831" style="stop-color:#000000"/>
</linearGradient>
<path class="st0" d="M67.5,44.6l-7.5-4.4c-0.7-0.4-1.1-1.1-1.1-1.9v-8.7c0-1.8-1-3.5-2.5-4.4l-7.5-4.4c-0.7-0.4-1.1-1.1-1.1-1.9
	v-8.7c0-1.8-1-3.5-2.6-4.4L35,0L24.9,5.8c-1.6,0.9-2.5,2.6-2.5,4.4V19c0,0.8-0.4,1.5-1.1,1.9l-7.5,4.4c-1.6,0.9-2.5,2.6-2.5,4.4v8.7
	c0,0.8-0.4,1.5-1.1,1.9l-7.6,4.4C1,45.6,0,47.2,0,49v11.6l10.1,5.8c1.6,0.9,3.5,0.9,5.1,0l7.6-4.4c0.7-0.4,1.5-0.4,2.2,0l7.5,4.4
	c1.6,0.9,3.5,0.9,5.1,0l7.5-4.4c0.7-0.4,1.5-0.4,2.2,0l7.5,4.4c1.6,0.9,3.5,0.9,5.1,0L70,60.7V49C70,47.2,69,45.5,67.5,44.6z
	 M44.7,10.3V19c0,1.8,1,3.5,2.5,4.4l7.6,4.4c0.7,0.4,1.1,1.1,1.1,1.9v8.7c0,1.8,1,3.5,2.5,4.4l7.6,4.4c0.7,0.4,1.1,1.1,1.1,1.9v8.3
	L36.4,39.6V4.2l7.2,4.2C44.3,8.8,44.7,9.5,44.7,10.3z M3.9,47.1l7.6-4.3c1.6-0.9,2.5-2.6,2.5-4.4v-8.8c0-0.8,0.4-1.5,1.1-1.9
	l7.6-4.4c1.6-0.9,2.5-2.6,2.5-4.4v-8.7c0-0.8,0.4-1.5,1.1-1.9l7.2-4.2v35.4L2.9,57.4V49C2.9,48.3,3.3,47.5,3.9,47.1z M58.5,64
	c-0.7,0.4-1.5,0.4-2.2,0l-7.5-4.4c-1.6-0.9-3.5-0.9-5.1,0L36.1,64c-0.7,0.4-1.5,0.4-2.2,0l-7.6-4.4c-1.6-0.9-3.5-0.9-5.1,0L13.7,64
	c-0.7,0.4-1.5,0.4-2.2,0l-7.2-4.2L35,42.1l30.7,17.7L58.5,64z"/>
</svg>
