<?xml version="1.0" encoding="UTF-8"?> <!-- Generator: Adobe Illustrator 22.0.1, SVG Export Plug-In . SVG Version: 6.00 Build 0) --> <svg xmlns="http://www.w3.org/2000/svg" xmlns:xlink="http://www.w3.org/1999/xlink" id="Ebene_1" x="0px" y="0px" viewBox="0 0 504 504" style="enable-background:new 0 0 504 504;" xml:space="preserve"> <style type="text/css"> .st0{fill:#040309;} .st1{fill:#FFFFFF;} </style> <g> <rect class="st0" width="504" height="504"></rect> </g> <g> <path class="st1" d="M40,502.9V364.2c0-0.6,0.3-1,1-1h15c0.5,0,0.8,0.3,1,1l2.1,8.2c0.3,0.5,0.6,0.8,1,0.7c0.4,0,0.7-0.2,1-0.5 c2.6-2.9,6.8-5.6,12.6-7.9c5.8-2.3,11.1-3.5,16-3.5c14.5,0,26,4.9,34.6,14.6c8.6,9.7,12.9,22.4,12.9,38.1c0,15.7-4.3,28.4-12.9,38 c-8.6,9.7-20.2,14.5-34.6,14.5c-6.1,0-12-1.4-17.5-4.1c-5.6-2.7-9.3-5.1-11.1-7.3c-0.5-0.5-1-0.7-1.4-0.5c-0.4,0.2-0.6,0.5-0.6,0.9 v47.6c0,0.7-0.4,1.1-1.1,1.1H41C40.3,504,40,503.6,40,502.9z M66.6,388c-5,6.6-7.6,15.2-7.6,25.8c0,10.6,2.5,19.2,7.6,25.7 c5,6.5,12,9.8,20.9,9.8c9.4,0,16.9-3.3,22.4-9.8c5.5-6.5,8.3-15.1,8.3-25.7c0-10.6-2.8-19.2-8.3-25.8c-5.5-6.6-13-9.9-22.4-9.9 C78.6,378.1,71.6,381.4,66.6,388z"></path> <path class="st1" d="M154.5,434.4c0-9,3.8-16.4,11.4-22c7.6-5.6,18.5-8.4,32.7-8.4h22.4c1.6,0,2.9-0.1,3.9-0.4 c0.9-0.3,1.6-0.7,2-1.4c0.4-0.6,0.6-1.3,0.7-1.8c0.1-0.6,0.1-1.4,0.1-2.7c0-2-0.1-3.7-0.4-5.2c-0.3-1.5-0.9-3.3-1.9-5.2 c-1-1.9-2.4-3.5-4.2-4.7c-1.8-1.2-4.3-2.3-7.6-3.2s-7.3-1.3-11.8-1.3c-8.2,0-14.3,1.7-18.3,5.1c-4,3.4-6,7.8-6,13.2 c0,0.7-0.4,1-1.1,1h-17.2c-0.7,0-1-0.3-1-1c0-7.6,2.1-14.1,6.3-19.5s9.5-9.5,16-12c6.4-2.5,13.5-3.8,21.3-3.8c14.1,0,25,3.2,33,9.5 c7.9,6.3,11.9,15.5,11.9,27.5v39.3c0,3.5,0.5,6.1,1.6,7.6s3.4,2.3,7,2.3h3.8c0.6,0,1,0.3,1,1v15c0,0.7-0.3,1-1,1h-7.2 c-0.3,0-0.6,0-0.9,0c-9.6,0-15.9-3.1-18.8-9.2c-0.2-0.5-0.5-0.7-0.9-0.7c-0.4,0-0.7,0.1-0.9,0.3c-2.9,3-7.4,5.7-13.6,8 c-6.2,2.3-13.4,3.5-21.8,3.5c-13,0-23-2.9-29.9-8.6C158,451.9,154.5,444.1,154.5,434.4z M173.6,434.4c0,4.2,1.7,7.7,5,10.6 c3.3,2.9,8.7,4.3,16,4.3c5.8,0,10.9-0.8,15.3-2.4c4.4-1.6,7.8-3.7,10.3-6.3s4.3-5.5,5.5-8.4c1.2-3,1.9-6.1,2-9.4v-2.8 c0-0.6-0.4-1-1.1-1h-27.9c-4.1,0.2-7.7,0.6-10.8,1.3c-3.1,0.7-5.5,1.5-7.3,2.5s-3.2,2.1-4.2,3.5c-1.1,1.3-1.8,2.6-2.1,3.9 C173.8,431.4,173.6,432.8,173.6,434.4z"></path> <path class="st1" d="M275.9,463.4v-15c0-0.5,0.3-1.2,0.8-2l53.6-64.6c0.3-0.2,0.3-0.5,0.1-0.9c-0.2-0.4-0.5-0.6-0.9-0.6h-50.5 c-0.7,0-1-0.3-1-1v-15c0-0.6,0.3-1,1-1h73.8c0.7,0,1,0.3,1,1v15c0,0.6-0.3,1.2-0.8,2l-53.2,64.6c-0.3,0.3-0.3,0.6,0,1 s0.5,0.6,0.9,0.6h54.8c0.7,0,1,0.3,1,1v15c0,0.7-0.3,1-1,1h-78.6C276.3,464.4,275.9,464,275.9,463.4z"></path> <path class="st1" d="M373,419.1v-55c0-0.6,0.4-1,1.1-1h17c0.7,0,1,0.3,1,1v55c0,4,0.5,7.8,1.4,11.2c0.9,3.5,2.4,6.6,4.4,9.5 c2,2.9,4.8,5.2,8.3,6.9c3.5,1.7,7.7,2.5,12.5,2.5c5.4,0,10.2-1.4,14.3-4.3c4.1-2.9,7.2-6.6,9.2-11.1c2-4.5,3-9.4,3-14.7v-55 c0-0.6,0.3-1,1-1h17c0.7,0,1,0.3,1,1v99.2c0,0.7-0.3,1-1,1h-15c-0.5,0-0.8-0.3-1-1l-2-9c-0.3-0.5-0.6-0.8-1.1-0.7 c-0.5,0-0.9,0.2-1.1,0.5c-2.1,3.1-5.6,5.8-10.3,8.3c-4.7,2.5-10,3.8-15.9,3.8c-8,0-14.9-1.2-20.7-3.7c-5.8-2.4-10.3-5.9-13.6-10.3 c-3.3-4.4-5.6-9.4-7.1-14.8C373.7,432.1,373,426,373,419.1z"></path> </g> </svg> 